<?xml version="1.0" encoding="utf-8"?>
<!-- Generator: Adobe Illustrator 27.5.0, SVG Export Plug-In . SVG Version: 6.00 Build 0)  -->
<svg version="1.1" id="Layer_1" xmlns="http://www.w3.org/2000/svg" xmlns:xlink="http://www.w3.org/1999/xlink" x="0px" y="0px"
	 viewBox="0 0 800 800" style="enable-background:new 0 0 800 800;" xml:space="preserve" >
<g fill="#F1BC66">
	<path d="M733.266,177.121l-2.949-0.843l-3.371-2.107l-1.685-1.685l-1.685-0.843l-5.899-0.843l-2.949-1.685l-0.843-2.528
		l0.421-1.685l3.371-2.949v-1.264l-0.843-0.843l-3.912-0.782l-0.301-0.201v-1.545l-0.126-0.506l0.126-0.758l-0.351-0.14l-0.07-0.281
		l-0.983-0.14l-0.702-0.281l-0.632,0.09l-0.632-0.09l-0.506,0.253l-1.18,0.169l-4.213,2.107l-5.899,0.421l-1.264,0.421h-4.213
		l-6.32-0.843l-5.477-1.685l0.421-2.107l0.421-0.421l3.792-1.264l3.371-1.685v-1.685h-3.371l-2.528,0.421l-7.584-0.421l-5.477-2.107
		l-3.371-1.685l-1.264-2.107v-3.792l0.421-0.843l4.213-2.949l4.213-3.792l2.949-4.213l2.107-3.792l-0.421-1.685h-6.32l-3.371-0.421
		h-24.858l-5.899-0.421l-2.107-0.421l-5.056-2.107l-5.899-0.421l-10.112-2.949l-2.949-2.107l-2.949-3.371v-6.741l0.843-1.685
		l-0.421-1.685l-4.213-0.843l-6.32-1.685l-8.005-3.792l-3.371-2.949l-0.421-2.949l0.983-3.605l1.124-1.873l-0.099-0.05l1.363-1.636
		l-1.264-1.264l-6.741-0.421l-1.685-0.843l-1.685-1.685v-9.269l-0.843-2.528l-0.12-0.12l-0.722-1.986l-0.843-4.635l-1.685-4.213
		l-0.843-3.792l-1.685-3.371l-2.528-1.685l-3.792-0.421l-3.792-0.843l-6.32-1.685l-8.005-2.107h-7.584l-5.477,0.843l-5.898,1.685
		l-8.848,2.949l-11.687,4.25l-0.11-0.037l-2.107,0.843l-12.64,5.477l-14.325,5.056l-17.274,4.213l-8.848,2.528l-10.533,4.635
		l-14.325,5.056l-10.533,3.792l-8.005,4.635l-5.477,2.107l-10.533,2.949l-6.741,1.685l-6.32,1.264l-5.056,1.264l-11.797,3.371
		l-9.69,2.528l-11.797,2.949l-1.053,0.421h-0.211l-4.213,1.685l-0.032,0.097l-0.81,0.324l-7.584,2.107l0.077,0.038l-1.341,0.383
		l-5.477,0.843l-8.005,2.528l-5.898,1.685l-12.64,4.213l-8.848,4.635l-2.107,1.685l-2.528,1.685l-6.741,2.528l-5.477,2.107
		l-5.477,2.528l-8.426,2.949l-2.247,0.983l-1.124,0.281l-3.371,1.685l-7.584,2.528l-5.898,2.528l-0.843,0.506l-1.685,0.758
		l-0.875,0.778l-0.81,0.486l-3.009,2.708l-2.889,1.926l-0.094,0.094l-6.226,3.277l-6.741,3.371l-3.792,0.421l-1.369,0.316
		l-0.737,0.105l-1.023,0.301l-2.347,0.542l-2.139,0.778l-1.653,0.486l-0.843,0.421l-5.056,2.528l-1.685,0.843l0.028,0.17
		l-5.927,3.622l-8.426,5.056l-4.635,3.371l-5.898,3.792l-6.741,4.635l-8.426,5.898l-7.162,5.056l-5.898,4.213l-6.741,5.056
		l-8.005,5.898l-4.213,3.371l-4.635,3.792l-4.635,4.635l-6.32,6.741l-3.371,4.213l-3.792,3.371l-4.635,5.056l-5.899,7.584
		l-3.371,6.32l-2.107,5.898l-1.264,6.32v13.904l-0.421,4.635l-1.685,4.213l-3.792,6.32l-5.899,12.218l-1.685,4.635v4.213
		l0.843,5.477l1.264,4.213l2.107,4.213l2.949,2.949l5.056,2.528l5.056,1.264l16.853,0.421l1.264,0.421l2.528,2.107l2.528,7.162
		l1.685,1.685l6.32,2.107l4.635,0.843h4.213h5.056l4.213,1.264l3.371,2.528l3.792,1.264l5.899,2.949l6.741,1.685h5.477l3.792-0.843
		l4.635,0.843v1.685l-2.949,3.792l-1.264,2.949l-1.685,2.528l-0.421,2.107l0.843,0.421l7.162,0.843l2.703,1.159l1.283,2.309
		l0.889,1.889l1.023,3.07l-1.264,2.107l-5.056,3.792l-8.005,5.899l-5.898,4.213l-3.371,2.949l-3.371,2.107l-4.213,3.792
		l-2.528,1.685l-5.899,4.213l-2.107,2.107l-3.371,2.107l-3.792,3.792l-0.843,1.685l4.213-2.528l3.371-2.949l3.371-2.528l3.792-1.264
		l2.949,0.421l0.527,1.317l0.316,1.422v2.317l-0.421,1.685l-2.528,2.528l-7.162,5.056l-5.898,3.371l-5.477,3.792l-4.213,3.371
		l-2.528,2.949l-2.528,3.792v3.371l-0.843,2.107l-3.371,3.792l-0.786,1.376l-0.056-0.112l-0.843,1.685l0.421,2.528l1.264,4.213
		l0.02-0.04l0.401,1.304l2.528,4.213l0.421,2.949l-1.264,2.107l-3.792,4.213l-2.107,0.421l-2.949-2.528l-2.107-0.421l-0.421,0.843
		l0.421,1.685l1.264,3.792l0.421,1.685l-2.528,0.843l-5.056-0.843l-0.843-2.528l-1.685-0.843l-2.528,1.685v3.371l-3.792,6.741
		l-1.264,4.213l-0.421,4.635l0.843,2.107l2.107,1.685l6.741,2.949l8.005-0.421l1.685-1.685l3.792-3.371l7.162-3.371l4.635-0.421
		l2.528,0.421l0.421,1.264l2.107,0.843l-0.843,4.635l-2.107,2.528l-3.371,4.213l-2.528,1.685l-3.371,2.949l-2.107,2.107v3.792
		l-1.532,2.298l-5.63,4.022l-4.635,3.792l-1.264,2.107v5.477l-2.107,2.528l-1.685,4.635l-1.264,2.528l-2.528,3.792l-0.408,0.448
		l-0.014-0.027l-0.105,0.158l-3.687,4.055l-2.949,3.371v4.213l0.843,2.528l2.107,0.421l1.685-2.107l1.685-2.528l2.949-4.213
		l4.635-3.792l2.949-2.528l3.792-2.949l6.32-2.107l3.792-0.421l-0.421,7.162l-1.264,7.162v5.056l-0.421,1.685l-2.107,3.371
		l-0.674,0.506l-0.169-0.084l-4.213,3.371l-2.528,1.685l-2.528,2.107v2.528l1.264,2.107l1.264,0.421h10.112l2.107-0.421l1.685,0.421
		l0.843,2.107l-0.421,3.371l-2.528,3.371l0.421,2.528l2.528,2.528h2.107l2.949-2.528h2.949l4.213,0.843v4.213l-0.421,2.949
		l1.685,0.843h6.32l0.983,0.983l0.702,2.809l2.949,1.264h7.162l0.843,0.421l0.843,2.107l5.056-2.528l8.848-2.949l6.32-4.635
		l4.213-2.528l3.792-1.685l5.477-2.107l5.899-2.949l2.528-2.949l4.213-2.107l3.792-2.528l5.056-3.792l8.426-3.792h3.792l0.421,0.421
		l0.421,2.107l-0.843,1.685l-3.792,3.792l-3.371,2.528l-4.635,3.371l-4.213,2.528l-1.685,2.528l-2.949,2.528l-3.371,2.528
		l-3.792,1.685l-6.741,3.792l-3.371,2.949l-4.213,1.685l-2.648,1.986l-0.301,0.12l-0.14,0.211l-0.281,0.211l-2.528,1.264
		l-0.843,0.843l-1.685,1.685l-0.843,0.421l-2.528,1.264l-1.264,1.264l0.421,2.107l-0.421,2.528l-1.685,2.107l-3.371,2.107
		l-1.264,2.528l-3.371,2.359v-0.253l-0.843,0.843l-3.371,2.528l0.421,3.371l-1.264,1.685l0.421,1.685l2.949,0.421l3.792,2.528
		l0.421,2.107l-0.843,1.685l-2.528,0.843l-2.528,3.371l-0.421,2.107l2.949,4.213l2.949,0.421l0.421-0.421l1.685-1.053l1.264-0.632
		l1.264-1.264l0.337-0.843l1.77-2.528l2.528-0.421l2.107-1.685l3.371-2.949l8.005-3.371l2.949-2.528l3.371-1.685l4.213-0.421
		l-1.264,2.107l-2.709,1.625l-0.241,0.06l-0.749,0.468l-0.094-0.047l-1.18,0.843l-1.348,0.843l-0.116,0.203l-0.305,0.218
		l-0.051,0.404l-0.315,0.55l-0.056-0.112l-0.843,1.685v2.949l1.264,1.264l1.685-0.421l1.264-2.949l3.371-1.264l0.14-0.14
		l0.702-0.281l2.949-2.528l2.107-4.213l1.685-1.685h3.371l0.843,1.685l0.421,2.528h-0.843l-4.213,2.107l-1.264,3.371l-2.949,2.949
		l-2.528,1.264l-4.635,5.056l-3.371,2.949l-2.107,2.949l-2.949,0.843l-3.792,0.421l-1.685-0.843l1.685-3.371l-1.264-1.685
		l0.421-2.107l1.264-1.264h3.371l1.264,0.421l2.528-0.421l0.421-2.528l-1.685-2.107l-1.685-0.421l-0.843,0.421l-0.281,0.281
		l-2.247,1.404l-5.477,4.213l-8.005,4.213l-2.949,2.528l-3.371,1.685l-2.949,2.107l-3.792,2.949l-0.187,0.234l-0.234,0.187
		l-1.661,1.938l-1.554,0.989l-0.155,0.022l-2.528,1.685v1.264l1.264,0.843h2.949l0.421-0.421l3.371-2.107l0.041-0.285l1.223-0.979
		l2.949,0.421l2.949,3.371l1.685,3.792l0.613,0.46l0.23,0.383l0.545,0.198l0.297,0.223l0.41,0.034l0.854,0.311v0.077l2.528,0.843
		l0.421,1.264l-2.269,3.403l-1.296,0.259l-1.959-0.245l-0.566-0.162l-1.915-1.149l-0.421-0.421l-0.983,0.07l-0.281-0.07
		l-1.685,0.211l-2.949,0.211l-0.983,0.281l-1.124,0.14l-0.532,0.333l-0.31,0.089l-0.281,0.281l-2.247,1.404l-1.223,1.427
		l-0.041-0.163l-1.264,1.685l-2.107,4.213l-1.264,0.421l-0.14,0.14l-2.809,1.124l-0.177,0.155l-0.665,0.266l-0.149,0.446
		l-0.273,0.239v-0.263l-2.107,2.107l0.421,1.685l2.107,0.843l0.292,1.167l-0.432,1.08l-1.124,1.124l-0.421,0.421l-2.949,3.371
		l0.421,0.843l2.107-0.421l-0.032-0.097l1.296-0.324l2.107,0.421h2.107l0.421-0.421l2.949-0.843l0.421-0.281l0.421-0.14l0.421-0.421
		l2.809-1.685l3.09-1.685l3.371-0.421l1.264,1.264l-0.843,2.107l-3.371,2.528l-0.527,0.421h-0.316l-3.371,2.949l-3.792,2.949
		l1.264,2.107h2.107l1.685-0.843l1.204-1.505l1.445-0.963l2.408-0.903l0.722-0.482l0.12,0.06l1.685-1.264l0.421,1.685l-0.843,1.264
		l0.421,4.213h0.843l0.843-2.528l2.949-2.528h2.528l3.371,2.107l3.371,0.421l2.107,1.685l1.685-0.421l0.843-2.107h0.843l6.741-1.264
		h3.371l2.247-1.926l2.387-1.023l0.772-0.421h0.07l3.792-2.107h3.792l-0.843,2.528l-0.421,2.107l0.843,0.843l0.198,0.025
		l1.487,1.239l2.107,1.264v2.107l0.421,2.528h1.685h2.107l1.134-0.405l0.13-0.016l0.011-0.034l1.084-0.387h0.169l0.094-0.094
		l3.277-1.17l1.264,0.421l1.264,2.528l2.107-0.421l1.685-2.528l3.371-1.685l0.375-0.437l0.047,0.016l0.843-1.053l0.967-1.128
		l1.983-1.19l4.213-2.107l8.005-4.213l5.899-3.371l3.371-0.421l2.949,1.264v2.107l-1.264,2.528l-1.795,2.153l-2.84,1.217
		l-1.083,0.602l-0.602,0.241l-0.482,0.361l-1.625,0.903l-2.341,0.702l-0.609,0.14l-0.115,0.077l-1.149,0.345l-5.898,3.371
		l0.118,0.03l-1.382,0.813l-3.792,1.264l-4.213,1.685l-0.421,1.685l0.843,0.843v2.528l-1.264,2.107l-3.371,2.528l-1.204,0.963
		l-0.06-0.12l-0.843,0.843l0.421,1.685l5.056-0.843l2.528,0.421l1.685,0.421l1.264-2.107l3.371-2.528l4.213-1.264l2.107-3.792
		l2.413-2.068l0.115-0.038l0.421-0.421l2.528-1.685l1.685,0.421l0.749,0.281l3.043,1.404l0.281,0.14l1.404,1.124l2.107,0.421
		l2.107-2.107l4.213-1.685l0.179-0.314l0.242-0.108l0.253-0.758l1.011-1.77l2.949-4.635l2.107-2.107l3.792-1.264l1.896-0.421h1.896
		h6.32l0.843-0.421l3.792-1.685h2.949l0.421,7.162l-0.421,0.843l-0.281,0.702l-0.562,0.562v0.843l2.107,0.421l1.685-1.685
		l2.107-1.264h3.792h2.528l0.972-0.389l0.292-0.032l0.14-0.14l0.702-0.281h4.213l0.843,1.264l-2.107,4.213l-0.421,2.528l0.843,0.421
		l1.685-0.421l0.843-1.264l3.972-3.25l2.769-1.384l4.635,0.421l1.685,1.264h3.792l3.792-1.264l0.421-0.421l0.421-0.421l2.949-2.949
		l0.689-0.306l0.575-0.115l5.056-2.528l5.056-2.528l2.949-1.264l0.084-0.084l0.069-0.031l3.217-1.149l0.674-0.506l0.169,0.084
		l0.843-0.843l1.685-1.264l2.001-2.001l3.476-2.212l5.477-3.371l0.337-0.337l2.191-1.348l5.056-1.264h4.635l3.371-2.107l6.32-1.264
		l3.792-2.949l4.213-1.264l2.528-1.685l0.169-0.337l0.674-0.506l5.056-1.685l0.749-0.468l0.094,0.047l4.382-2.696l2.781-1.517
		l4.635-1.264l3.371-2.949l3.792-2.949l5.898-2.528l1.264-2.107l2.722-2.042l0.227-0.065l0.084-0.169l0.337-0.253l3.371-1.264
		l2.949-1.685l0.843-2.107l2.949-0.843l2.107-1.685l4.213-0.843l4.635-1.264l1.517-0.674l1.011-0.169l0.79-0.632l0.474-0.211
		l0.241-0.361l0.602-0.482l0.211-0.737l0.632-0.948l0.843-2.107l-1.685-0.421l-2.528,1.264l-2.528,1.264l-1.685,0.843l-4.635,1.264
		l-2.107,1.685l-4.213,0.843l-5.898,1.264l-1.685,1.685l-3.792,1.685l-0.319,0.273l-1.366,0.569l-2.528,2.528l-0.421,0.421
		l-5.477,2.949l-2.107,1.685l-1.685,0.843l-2.528,0.843l-0.087,0.26l-3.705,1.425l-2.107,0.421l-0.421-0.843v-2.949l0.843-1.685
		l-0.421-2.107l-2.107-0.421l-3.371,0.843l-1.685,2.107l-2.949,0.421l-0.14,0.14l-1.545,0.281l-2.528,2.107l-4.635-0.421
		l-0.843-0.843l0.421-1.685l2.949-3.371l7.162-4.213l6.32-2.107l2.107-1.264l3.371-1.685l1.685-1.264l5.056-2.107l2.528-1.685
		l2.949-1.264l2.949-1.264l5.056-0.843l3.371-2.528l4.213-2.528l2.949-1.264h2.949l1.685-1.264l2.528-1.685l6.32-3.371l0.843-1.685
		h0.843l5.477-2.949l0.421-2.528l-2.949-0.843v-0.843l2.949-0.843l0.421-2.949l0.843-0.421l3.371-0.843l3.371-2.107l3.687-2.212
		l3.476-1.159V624.5l2.528-0.778l3.371-1.264l4.635-2.107l2.528,0.843h2.107l4.213-2.528l4.213-1.685l-0.421-1.264l0.421-1.264
		l2.107-1.685l0.843-1.685h0.843l4.213-1.685l2.949-2.528h4.635l0.843-0.421l3.792-2.949l5.477-2.949l6.32-1.264l4.213-0.421v0.843
		l2.528,2.528l2.107-0.421l2.949-7.162l1.264-1.685h5.898l3.371-0.843l3.792-0.843l2.107-3.371l2.949-1.264l2.107-1.264l0.843-1.685
		l-1.685-0.421l-2.949,1.264l-0.843,2.107h-0.843l-10.954,2.528l-4.213,2.107l-5.056,0.843l-2.528,1.685l-2.528-0.421h-3.792
		l-3.371,2.107l-6.32,1.685l-1.264,1.685l-5.477,2.949l-1.685,2.528h-4.213l-1.685,0.843l-0.421,1.264h-0.843l-4.213,0.843
		l-4.213,1.264l-2.949,3.371l-4.635,1.264l-2.949,0.843l-3.792,1.685l-2.949,2.107l-3.792,1.685l-4.213,1.685l-2.809,0.843h-0.562
		l-0.843,0.421v0.843l-2.528,0.843l-4.213,0.843l-0.421,0.421l-3.371,0.843l-0.303,0.259l-0.54,0.162l-0.554,0.776l-1.552,1.331
		l-3.792,0.421l-1.264,1.685l-1.685,1.685h-3.792l-2.107-0.421l-2.949,2.528l-1.685,2.107l-4.213,0.421l-2.528,0.843l-3.371,2.107
		l-2.528,2.107l-3.792,0.421l-1.685,2.107l-5.477,0.843l-3.371,1.685l-6.741,2.949l-1.264,1.264l-3.792,1.264l-5.056,2.107
		l-2.949,1.264l-6.741,2.107l-3.792,0.843l-0.421,0.421l-1.685,0.843l-0.421-2.107l0.843-0.843l3.371-1.685l3.371-2.107l5.477-2.949
		l5.056-2.528l8.005-4.213l10.112-4.213l5.477-2.528l9.69-4.213l7.162-2.528l1.685-1.264l2.949-1.264l3.371-1.685l4.635-1.685
		l4.635-1.264l1.264-0.843l2.949-1.685l8.005-3.371l5.056-1.685l3.792-1.685l2.107-2.949l6.741-3.792l3.371-1.264l6.741-3.371
		l7.162-2.107l5.477-2.107l7.162-2.528l3.792-1.264l5.056-2.107l1.685-1.264l1.685-2.528l1.685-2.107h4.635l1.685-1.264l4.213-1.264
		l4.635-2.528l5.477-1.264l0.843-0.843l3.792-1.264l1.264-1.685l4.213-0.843l5.056-2.107l10.954-3.371l1.685-1.264l-0.421-3.792
		l0.843-1.264h2.528l2.528,1.685h2.528l3.792,0.421l4.213-0.421v-2.528l-5.477-5.477l-0.843-2.107l-0.843-0.843l-3.792-0.421
		l-3.371-0.843l-3.371-0.843l0.421-1.264l7.162-2.949l2.107-1.685l1.264-6.32l1.264-1.264l4.213-0.421l0.843-0.421l2.107-2.107
		l-1.685-6.741l0.421-2.528l1.264-0.421h3.792l0.843-0.843v-2.528l-0.421-0.421l-0.421-2.949l-1.685-0.843l-0.843,4.213
		l-5.898-0.421l-2.107,1.264l-5.056,0.421l-0.843,0.421l-11.797,2.949l-3.371,1.685h-2.949l-0.843-0.843v-2.107l0.843-1.264
		l5.056-2.528l5.477-1.264l2.528-1.264l2.528-2.107l3.792-1.264l1.264-1.264l1.685-0.843l3.792-1.264l-0.421-1.685l-3.371-1.264
		h-2.949l-2.593-0.324l-2.042-1.361v-1.264l2.107-1.685l-0.392-1.961l1.235-0.988h2.528l0.843,0.421h2.949l2.528-1.264l1.264-1.264
		l4.213-2.107l0.421-1.685l-0.843-0.843l-3.792-1.264l-1.685,0.421l-5.056,2.107h-2.528l-3.792-0.843l-2.949,0.421l-4.635,2.528
		h-5.056l-0.421-2.528l1.106-1.422l0.158,0.158l1.685-2.528l2.528-2.107l2.528-1.685l1.685-2.528v-2.528l-1.264-2.107l0.421-1.685
		l4.213-1.264l5.477-0.843l2.107-1.685l2.528-1.264l2.107-1.685l-0.421-1.685l-0.421-4.635l2.949-0.843l1.264-1.264l-0.421-2.107
		v-3.371l0.843-3.371l1.685-1.685l3.371,0.421l1.264-2.107l5.056-2.107l11.376-2.107l4.213-2.107l0.421-1.685l-2.528-2.107H597.6
		l-1.264-0.843l-2.528-1.264l-0.421-1.685l8.848-4.213l4.213-0.843l0.281-0.281l0.562-0.14v-0.421l0.843-0.843l5.477-1.685
		l0.421-1.264l-1.685-0.421l-11.797,1.685l-4.213,1.685h-2.949l-6.32,1.264l-7.162,1.264h-5.056l0.843-3.792l6.741-3.792
		l3.371-2.107l5.056-3.371l4.213-2.528l5.477-0.843l6.32-1.685l7.162-2.107l2.528-3.792l0.843-4.213l-1.264-0.843l-4.213-0.421
		l-1.685-1.685l0.421-1.264l1.214-0.867l0.05,0.025l1.685-1.264l1.264-3.792l0.843-0.843l1.264-0.843l2.107-1.053l5.898-1.475
		l6.741-0.843l1.685-0.843l9.269-2.107l3.371-1.685l1.685-3.792l2.949-3.371l2.528-3.792l0.421-1.685h-2.949l-6.32,1.685
		l-4.213,1.685l-5.056,0.843l-4.213,0.843l-6.32,0.421l-3.371,2.107l-5.477,1.264l-2.107,0.843l-5.056,0.421l-1.264,0.421
		l-5.898,1.264l-5.056,0.421l-2.107-1.685v-2.528l2.107-1.264l8.005-1.264l2.528-1.264l5.477-1.264l8.426-0.843l0.421-0.421
		l0.421-1.685l-0.843-0.421h-4.213l-1.685-0.421l-1.264-1.685l-1.685-2.528v-3.371l0.421-1.264l-0.421-3.371l-1.685-1.685
		l-1.685-0.281v-0.14l-3.371-0.421l0.421-1.264l1.264-1.264l4.635-2.949l3.687-1.29l0.105,0.026l4.635-1.685l2.253-3.004
		l2.849-1.069l2.06-0.562h11.376l1.685-0.421l5.477-0.843l13.904-2.949l3.371-0.843v-1.264l-6.741-0.421v-1.264l-1.264-1.264h-4.213
		h-1.685l-1.685-0.421l0.361-1.083l0.903-0.602l6.741-1.685l10.533-1.264l7.162-2.107l3.371-2.107l3.371-1.685l4.635-5.898
		l3.792-4.213l2.528-1.685l2.949-2.528l5.477-1.685l5.477-0.843l1.685-0.843v-3.792l-0.843-2.528l0.843-6.741l0.843-2.949
		l1.685-2.107l3.371-1.685l1.685-1.264l0.187-0.421h0.234l1.264-3.371l0.421-2.528l-2.107-0.843l-0.421-4.635v-7.584l0.421-0.421
		l3.792-2.528l4.213-4.635l1.264-2.949l0.843-5.056l0.843-1.685l0.077-0.766l0.345-0.919l-0.181-0.722l0.181-1.806l-0.752-8.643
		l0.21-1.469l1.806-2.528v-3.371l-7.584-4.213v-4.213l-0.843-7.162l0.421-2.949l-2.107-2.528l-1.264-2.528l-0.542-0.722
		l-0.301-0.542l-0.151-0.06l-0.271-0.361l-8.005-3.792l-4.635-2.949v-3.371l0.421-0.843l1.685-1.685l5.056-1.685l7.584-1.264h8.426
		l2.107-0.843l3.792-3.371l3.792-2.528l0.421-2.107L733.266,177.121z M548.787,500.937l-2.167,1.445l-3.371,1.685l-3.792,0.421
		l0.843-2.107l2.107-1.264l-0.421-0.211l2.949-1.475l2.107-1.264l2.107,0.843l0.241,0.963l-0.12,0.361L548.787,500.937z
		 M213.354,716.413l-0.421,2.107l-1.264,1.264l-3.792,1.896l-0.421-0.211l-0.421,0.632l-1.601,0.801l-0.628,0.09l-2.406-3.208
		l0.421-2.107l2.528-1.685l8.005-4.213l5.056-2.107h2.528l0.843,0.843v2.107l-4.635,2.528L213.354,716.413z M173.75,699.56v-0.169
		l0.632-0.253h4.003v2.107l-1.264,2.107l-2.107,1.264h-4.635l-0.843-0.421v-2.107l1.685-1.264l-0.324-0.162l0.324-0.259l2.107-0.843
		H173.75z M203.664,698.717l-3.371,1.685l-4.213,0.843v-1.685l2.528-1.685l1.118-0.688l0.567-0.155l0.306-0.383l3.485-2.145
		l4.635-2.949l3.792-1.264l0.399-0.319l0.444-0.102l1.144-1.144l0.963-0.12v-0.421l0.506-0.253l0.758,0.253l0.632-0.948l0.211-0.105
		l0.421,0.211l3.371-1.685h2.528l0.843,0.421v1.685l-1.264,1.685l-3.792,1.264l-0.301,0.301l-0.542,0.12v0.421l-1.264,1.264
		l-4.213,0.421l-2.107,1.685l-2.413,1.034l-3.485,1.073l-0.843,0.843L203.664,698.717z M230.629,710.935l1.264-0.843h1.264
		l0.421,1.685l-1.685,1.685l-1.685-0.843L230.629,710.935z M397.051,659.534l-2.107-0.421l-0.421-2.107l2.107-3.371l1.083-0.542
		l0.602,0.12l4.635-2.107l5.477-2.528l0.486-0.227l2.463-1.037l3.371-1.685l2.949-1.18l3.393-0.905l4.612-0.865v2.528l-3.371,2.949
		l-4.635,0.843l-1.685,2.107l-1.264,2.107l-5.899,1.264l-0.306,0.613l-3.064,1.915L397.051,659.534z M434.97,641.839l-1.685-0.421
		l-2.528-1.685l-0.421-1.685l4.635-1.264h2.949l-0.421,2.107L434.97,641.839z M442.975,637.625h-2.528l-0.843-0.843l0.843-1.264
		h2.528l0.843,0.421L442.975,637.625z"/>
	<polygon points="525.133,626.25 521.762,627.935 515.442,630.042 512.493,631.727 505.33,632.57 504.066,633.834 503.645,635.519 
		507.437,635.94 512.072,632.991 516.285,632.148 518.813,630.463 522.605,629.62 524.711,628.778 529.346,628.778 531.031,627.514 
		533.559,626.25 533.98,624.565 529.767,624.565 	"/>
	<polygon points="127.405,678.494 126.983,677.23 125.298,676.808 124.034,677.651 121.085,677.23 113.501,678.915 112.097,679.758 
		111.816,679.758 111.395,680.179 110.973,681.864 111.816,683.128 113.922,683.128 116.45,681.443 118.136,680.6 120.664,681.864 
		122.77,679.336 126.562,679.336 	"/>
	<polygon points="458.985,632.148 465.305,631.727 465.726,631.306 465.726,628.778 463.62,628.356 459.828,630.884 
		455.614,631.306 453.929,632.148 452.244,634.676 453.087,635.94 455.193,635.519 	"/>
	<polygon points="118.136,508.28 118.557,506.173 117.714,505.752 114.765,505.752 111.395,507.016 111.395,509.122 
		112.659,510.386 116.029,510.386 	"/>
	<polygon points="459.406,652.793 457.3,653.636 453.508,655.321 451.823,656.585 451.401,658.27 454.351,657.849 457.3,655.742 
		462.356,654.478 462.777,653.636 462.356,652.793 	"/>
	<polygon points="175.014,735.794 173.75,735.794 169.537,736.215 169.116,736.636 168.273,740.428 169.537,741.271 
		171.644,740.007 175.014,737.9 	"/>
	<polygon points="99.289,691.19 99.176,691.133 97.912,691.976 98.755,694.504 100.019,694.925 100.26,694.805 100.861,694.925 
		102.547,693.661 102.968,690.712 100.861,690.291 	"/>
	<polygon points="130.354,738.321 128.669,737.9 125.298,738.743 124.456,739.585 124.877,741.692 126.983,742.113 129.511,740.007 
			"/>
	<polygon points="578.64,572.742 577.798,573.585 577.376,576.113 578.64,576.955 581.59,576.534 582.011,574.849 580.747,572.742 	
		"/>
	<polygon points="176.921,755.285 176.699,755.174 174.593,757.281 174.593,758.966 177.121,758.545 180.07,756.438 
		180.491,754.753 177.542,754.753 	"/>
	<polygon points="485.528,640.996 485.95,642.681 489.32,642.681 492.269,640.996 492.269,640.153 486.792,639.732 	"/>
	<polygon points="537.351,622.879 538.615,624.143 541.564,624.143 542.828,623.301 542.828,621.615 539.879,621.615 	"/>
	<polygon points="200.293,737.479 199.872,739.585 201.136,740.007 204.085,738.321 204.085,736.215 202.4,736.215 	"/>
	<polygon points="92.856,694.083 92.295,694.644 92.014,694.504 91.171,695.768 91.592,697.453 91.873,697.523 92.014,697.875 
		92.646,697.717 93.278,697.875 93.501,697.503 93.699,697.453 93.819,696.972 94.542,695.768 95.384,693.661 94.12,693.661 	"/>
	<polygon points="126.562,665.011 126.141,663.747 121.506,663.747 121.085,664.169 121.085,665.854 125.719,665.854 	"/>
	<polygon points="464.041,649.844 463.62,652.372 465.305,652.372 467.411,651.108 467.833,649.844 465.726,649.001 	"/>
	<polygon points="258.857,730.316 258.015,731.159 258.436,732.844 260.542,733.266 261.806,732.002 260.964,730.316 	"/>
	<polygon points="208.72,758.545 208.72,760.651 211.669,760.23 212.09,758.124 209.984,757.702 	"/>
	<polygon points="136.674,753.068 134.989,754.753 137.095,754.753 140.044,753.068 140.466,751.382 138.78,751.382 	"/>
	<polygon points="638.468,417.696 639.311,419.381 641.839,419.381 642.26,418.959 642.26,417.274 639.732,416.853 	"/>
	<polygon points="496.483,637.204 496.061,637.625 495.64,639.311 498.589,639.732 499.432,638.889 498.589,637.204 	"/>
	<polygon points="255.065,732.844 254.223,733.687 254.644,735.794 256.751,735.794 257.172,734.951 256.751,733.266 	"/>
	<polygon points="515.442,606.869 513.336,606.869 512.914,607.29 513.336,609.818 515.021,609.397 	"/>
	<polygon points="129.511,754.753 129.511,756.017 132.039,756.017 132.461,755.596 132.461,753.91 130.354,753.91 	"/>
	<polygon points="148.892,748.012 148.471,749.697 149.735,750.118 151.42,748.854 151.841,747.169 150.999,747.169 	"/>
	<polygon points="699.56,150.156 699.56,148.471 697.875,148.05 697.032,148.892 697.453,150.577 	"/>
	<polygon points="141.308,659.956 140.044,659.956 139.202,660.798 139.202,662.484 140.887,662.062 	"/>
	<polygon points="468.675,625.828 468.254,626.671 469.939,627.092 472.467,625.407 470.782,624.986 	"/>
	<polygon points="108.024,510.808 106.76,510.386 105.917,510.808 105.917,512.493 107.603,512.914 	"/>
	<polygon points="155.633,746.327 157.319,746.748 158.161,745.063 156.476,744.641 	"/>
	<polygon points="474.574,648.159 475.838,648.159 477.102,646.895 475.417,646.473 	"/>
	<polygon points="285.4,745.905 287.086,746.327 287.086,745.063 286.243,744.641 	"/>
	<polygon points="616.138,425.701 617.402,425.701 617.823,424.437 616.138,424.437 	"/>
	<polygon points="491.006,616.559 492.269,616.559 492.691,615.295 491.427,615.295 	"/>
	<polygon points="151.42,736.636 152.263,736.636 151.42,735.794 	"/>
</g>
</svg>

