<svg xmlns="http://www.w3.org/2000/svg" xmlns:xlink="http://www.w3.org/1999/xlink" width="500" zoomAndPan="magnify" viewBox="0 0 375 374.999991" height="500" preserveAspectRatio="xMidYMid meet" version="1.0"><defs><clipPath id="ad0041a599"><path d="M 110 8.097656 L 116 8.097656 L 116 14 L 110 14 Z M 110 8.097656 " clip-rule="nonzero"/></clipPath><clipPath id="fbb9e600e7"><path d="M 15 14 L 368 14 L 368 374.847656 L 15 374.847656 Z M 15 14 " clip-rule="nonzero"/></clipPath></defs><path fill="#ffffff" d="M 129.742188 258.121094 C 129.742188 258.121094 129.742188 257.640625 129.742188 256.738281 C 126.933594 255.839844 130.90625 254.511719 129.742188 252.820312 C 133.082031 251.128906 120.972656 249.066406 129.742188 246.695312 C 125.480469 244.324219 131.289062 241.640625 129.742188 238.703125 C 123.394531 235.765625 132.625 232.570312 129.742188 229.179688 C 134.949219 227.964844 125.804688 226.730469 129.742188 225.46875 C 127.328125 224.207031 129.875 222.925781 129.742188 221.621094 C 127.257812 220.96875 127.359375 220.3125 125.679688 219.652344 C 129.796875 218.988281 129.421875 218.324219 128.964844 217.652344 C 130.457031 216.984375 119.71875 216.308594 129.023438 215.628906 C 126.261719 214.949219 125.207031 214.265625 129.746094 213.578125 C 130.203125 212.890625 126.25 212.199219 128.695312 211.503906 C 126.269531 210.808594 123.3125 210.109375 129.105469 209.410156 C 132.421875 208.707031 124.910156 208.003906 129.839844 207.296875 C 121.171875 206.589844 122.09375 205.878906 129.746094 205.164062 C 131.402344 204.453125 135.457031 203.738281 129.5 203.019531 C 133.152344 202.300781 132.085938 201.582031 128.511719 200.859375 C 125.03125 200.136719 129.339844 199.414062 128.328125 198.691406 C 123.917969 197.964844 124.367188 197.238281 129.746094 196.511719 C 133.585938 195.78125 126.917969 195.050781 131.964844 194.320312 C 123.453125 193.59375 139.957031 192.859375 130.082031 192.128906 C 130.910156 191.394531 131.449219 190.664062 128.675781 189.929688 C 127.695312 189.199219 128.359375 188.464844 129.746094 187.730469 C 124.152344 186.265625 127.664062 184.796875 128.457031 183.335938 C 127.316406 181.871094 132.25 180.410156 129.746094 178.953125 C 131.742188 177.496094 131.789062 176.042969 129.277344 174.601562 C 130.5 173.15625 126.65625 171.722656 129.746094 170.296875 C 129.746094 168.871094 129.746094 167.453125 129.746094 166.050781 C 129.746094 164.648438 129.746094 163.257812 129.746094 161.882812 C 129.746094 159.132812 129.746094 156.445312 129.746094 153.839844 C 129.746094 150.859375 129.746094 147.984375 129.746094 145.25 C 128.027344 142.515625 128.035156 139.914062 129.746094 137.480469 C 131.121094 136.265625 130.511719 135.089844 129.863281 133.964844 C 129.214844 132.835938 128.523438 131.75 129.746094 130.71875 C 130.550781 125.515625 131.050781 128.9375 131.097656 127.769531 C 131.148438 129.078125 130.746094 121.199219 129.746094 125.136719 C 129.019531 123.785156 129.214844 123.199219 129.496094 122.851562 C 129.773438 121.617188 130.136719 123.449219 129.746094 120.925781 C 129.140625 119.769531 129.746094 118.875 129.746094 118.265625 C 129.746094 117.65625 129.746094 117.339844 129.746094 117.339844 C 129.746094 117.339844 131.457031 117.339844 134.476562 117.339844 C 137.496094 115.578125 141.820312 121.164062 147.042969 117.339844 C 148.78125 120.960938 150.988281 112.695312 153.09375 117.339844 C 155.199219 121.332031 157.210938 115.683594 158.554688 117.339844 C 159.933594 112.507812 161.136719 115.765625 162.246094 117.339844 C 163.351562 116.03125 164.363281 113.367188 165.355469 117.339844 C 166.582031 116.515625 166.890625 119.394531 167.535156 117.339844 C 168.183594 112.859375 169.164062 114.703125 171.730469 117.339844 C 174.722656 113.429688 174.1875 114.46875 175.4375 117.339844 C 175.511719 114.324219 177.527344 120.066406 178.886719 117.339844 C 180.246094 116.984375 180.945312 118.527344 178.382812 117.339844 C 174.324219 117.480469 179.339844 117.410156 180.765625 117.339844 C 181.699219 116.582031 183.3125 117.882812 185.84375 117.339844 C 186.910156 115.34375 187.84375 116.742188 188.8125 117.71875 C 189.78125 117.84375 190.785156 117.84375 191.992188 117.339844 C 195.207031 117.824219 196.765625 117.300781 197.234375 117.339844 C 197.699219 115.875 197.082031 115.722656 195.949219 117.339844 C 195.074219 119.570312 200.460938 115.417969 200.160156 117.339844 C 200.230469 113.214844 205.371094 118.433594 201.886719 117.339844 C 202.738281 114.652344 198.371094 119.9375 207.171875 117.339844 C 206.699219 116.703125 209.769531 117.265625 208.828125 117.339844 C 206.984375 117.167969 213.484375 120.402344 213.960938 117.339844 C 212.398438 114.335938 219.917969 115.785156 219.507812 117.339844 C 221.191406 114.617188 222.257812 119.660156 221.332031 117.339844 C 221.546875 117.246094 221.902344 115.847656 222.882812 117.339844 C 223.863281 116.414062 225.460938 117.699219 228.164062 117.339844 C 230.261719 120.085938 231.664062 119.042969 233.277344 117.339844 C 234.082031 119.878906 234.941406 118.429688 235.964844 117.339844 C 236.988281 117.015625 238.179688 118.855469 239.648438 117.339844 C 240.449219 117.339844 241.96875 117.339844 243.488281 117.339844 C 245.011719 117.339844 246.535156 117.339844 247.339844 117.339844 C 254.851562 117.339844 250.800781 117.339844 250.144531 117.339844 C 255.277344 117.339844 252.613281 117.65625 250.144531 118.265625 C 249.660156 118.875 248.707031 119.769531 250.144531 120.925781 C 252.445312 122.082031 250.324219 123.496094 250.144531 125.136719 C 246.9375 126.777344 246.851562 128.648438 250.144531 130.714844 C 245.683594 132.785156 249.691406 135.046875 250.144531 137.480469 C 247.53125 139.914062 250.582031 142.511719 250.144531 145.25 C 251.523438 147.984375 250.058594 150.859375 250.144531 153.835938 C 249.984375 156.816406 251.855469 159.902344 250.144531 163.066406 C 247.707031 164.644531 247.816406 166.246094 248.480469 167.859375 C 249.144531 169.476562 250.363281 171.105469 250.144531 172.75 C 248.980469 173.875 248.886719 176.078125 249.128906 177.703125 C 249.371094 181.109375 249.953125 181.339844 250.144531 182.707031 C 248.746094 184.890625 249.683594 186.128906 250.503906 187.730469 C 251.324219 189.808594 252.023438 190.800781 250.144531 192.753906 C 249.484375 193.511719 249.964844 198.195312 250.375 197.753906 C 250.78125 200.214844 251.113281 201.070312 250.144531 202.710938 C 250.144531 204.351562 250.144531 205.984375 250.144531 207.597656 C 253.148438 209.214844 248.710938 210.8125 250.144531 212.394531 C 242.515625 215.554688 251.390625 218.644531 250.144531 221.621094 C 252.09375 224.601562 249.136719 227.476562 250.144531 230.210938 C 248.695312 232.945312 251.101562 235.546875 250.144531 237.980469 C 250.144531 240.410156 250.144531 242.675781 250.144531 244.742188 C 250.144531 247.5 250.144531 248.75 250.144531 251.886719 C 250.144531 255.273438 250.144531 256.46875 250.144531 256.492188 C 250.144531 256.792969 250.144531 256.652344 250.144531 258.121094 C 250.144531 260.113281 249.148438 258.273438 247.339844 258.121094 C 246.433594 259.738281 245.308594 260.175781 244.011719 258.121094 C 242.714844 258.792969 241.246094 259.542969 239.648438 258.121094 C 239.378906 256.5625 238.058594 255.109375 236.03125 258.121094 C 235.019531 259.761719 233.828125 258.546875 232.503906 257.527344 C 231.175781 256.511719 229.714844 255.691406 228.164062 258.121094 C 227.472656 256.3125 226.460938 260.882812 225.269531 259.726562 C 224.082031 261.972656 222.71875 257.917969 221.332031 258.121094 C 219.945312 259.742188 218.535156 258.445312 217.257812 257.753906 C 215.976562 262.488281 214.828125 261.652344 213.960938 258.121094 C 212.035156 257.496094 210.34375 260.15625 208.824219 258.058594 C 207.304688 259.027344 205.953125 257.3125 204.714844 258.121094 C 203.476562 257.789062 202.351562 260.511719 201.273438 258.375 C 200.195312 258.164062 199.167969 257.191406 198.128906 258.121094 C 196.773438 260.890625 195.410156 259.1875 194.046875 258.121094 C 192.679688 257.398438 191.3125 260.144531 189.941406 258.121094 C 188.574219 255.101562 187.207031 259.316406 185.839844 256.15625 C 184.476562 257.160156 183.113281 257.625 181.757812 258.121094 C 179.042969 253.933594 176.351562 255.484375 173.707031 255.800781 C 171.058594 256.117188 168.460938 257.207031 165.925781 258.121094 C 160.859375 261.269531 156.066406 256.738281 151.722656 258.121094 C 147.382812 255.34375 143.492188 256.207031 140.234375 258.121094 C 136.980469 257.660156 134.355469 257.636719 132.546875 258.121094 C 130.738281 258.121094 129.742188 258.121094 129.742188 258.121094 Z M 129.742188 258.121094 " fill-opacity="1" fill-rule="nonzero"/><path fill="#e8e2cf" d="M 362.46875 153.84375 C 362.472656 153.855469 362.46875 153.867188 362.46875 153.882812 C 362.484375 153.882812 362.5 153.882812 362.515625 153.882812 Z M 362.46875 153.84375 " fill-opacity="1" fill-rule="nonzero"/><g clip-path="url(#ad0041a599)"><path fill="#e8e2cf" d="M 115.515625 8.65625 C 115.554688 8.472656 115.613281 8.355469 115.578125 8.292969 C 115.535156 8.21875 115.410156 8.144531 115.324219 8.144531 C 112.371094 8.238281 111.660156 8.933594 110.765625 13.023438 C 112.058594 10.710938 113.792969 9.636719 115.515625 8.65625 Z M 115.515625 8.65625 " fill-opacity="1" fill-rule="nonzero"/></g><path fill="#e8e2cf" d="M 36.753906 313.6875 L 37.003906 313.816406 L 37.03125 313.601562 Z M 36.753906 313.6875 " fill-opacity="1" fill-rule="nonzero"/><path fill="#e8e2cf" d="M 365.992188 239.339844 C 365.863281 239.554688 365.527344 239.867188 365.503906 240.199219 C 365.449219 241.03125 366.152344 241.832031 366.734375 241.628906 C 367.054688 241.515625 367.417969 241.097656 367.480469 240.761719 C 367.617188 240.03125 366.898438 239.304688 365.992188 239.339844 Z M 365.992188 239.339844 " fill-opacity="1" fill-rule="nonzero"/><g clip-path="url(#fbb9e600e7)"><path fill="#e8e2cf" d="M 364.433594 236.601562 C 364.890625 235.355469 365.257812 234.03125 366.390625 233.15625 C 366.160156 232.269531 365.933594 231.382812 365.730469 230.59375 C 366.296875 230.035156 366.722656 229.621094 367.191406 229.160156 C 365.976562 227.5 363.472656 227.828125 362.707031 225.835938 C 363.101562 225.472656 363.5 225.109375 363.898438 224.746094 C 361.625 223.480469 359.25 223.832031 357.011719 223.410156 C 356.863281 223.382812 356.757812 223.128906 356.632812 222.976562 C 356.632812 222.976562 357.679688 221.367188 357.792969 221.191406 C 356.3125 220.835938 354.890625 220.554688 353.4375 220.382812 C 352.3125 220.25 351.175781 220.191406 350.386719 219.101562 C 350.140625 218.761719 349.480469 218.652344 348.988281 218.578125 C 347.644531 218.382812 346.285156 218.285156 344.941406 218.105469 C 344.347656 218.027344 343.667969 218.066406 343.367188 217.351562 C 343.433594 216.445312 344.160156 216.457031 344.746094 216.453125 C 346.734375 216.4375 348.726562 216.523438 350.714844 216.496094 C 351.289062 216.488281 351.859375 216.234375 352.640625 216.046875 C 351.847656 215.171875 351.246094 214.476562 350.605469 213.820312 C 350.484375 213.695312 350.210938 213.726562 350.011719 213.660156 C 347.214844 212.726562 344.363281 212.25 341.394531 212.25 C 339.742188 212.25 338.089844 211.863281 336.59375 211.671875 C 336.359375 211.265625 336.199219 211.097656 336.160156 210.90625 C 336 210.160156 336 209.617188 336.164062 209.230469 C 337.617188 209.140625 339.066406 209.054688 340.519531 209.003906 C 340.9375 208.988281 341.359375 208.964844 341.769531 208.882812 C 345.570312 208.117188 349.367188 207.324219 353.167969 206.570312 C 354.019531 206.40625 354.714844 206.074219 355.375 205.488281 C 356.78125 204.234375 358.273438 203.085938 359.722656 201.882812 C 360.015625 201.640625 360.492188 201.445312 360.113281 200.925781 C 359.265625 201.25 358.425781 201.574219 357.582031 201.890625 C 357.699219 201.109375 358.074219 200.679688 358.414062 200.222656 C 358.644531 199.914062 359.03125 199.582031 358.394531 199.121094 C 355.558594 200.710938 352.613281 202.183594 348.664062 202.171875 C 350.316406 200.511719 350.441406 198.253906 352.589844 197.523438 C 352.851562 197.433594 353.113281 197.136719 353.226562 196.871094 C 354.070312 194.871094 355.957031 194.0625 357.617188 193.011719 C 358.585938 192.398438 359.640625 191.921875 360.539062 191.449219 C 360.710938 191.117188 360.804688 190.933594 360.898438 190.75 C 361.960938 188.652344 362.554688 186.503906 361.890625 184.121094 C 361.738281 183.582031 361.953125 182.886719 362.144531 182.3125 C 362.535156 181.136719 363.023438 179.996094 363.429688 178.953125 C 363.070312 177.816406 361.949219 177.058594 362.390625 175.921875 C 362.839844 174.761719 362.019531 173.691406 362.234375 172.6875 C 363.742188 170.6875 366.074219 170.179688 367.960938 168.992188 C 367.425781 168.316406 366.582031 168.804688 366.144531 167.808594 C 365.652344 166.683594 364.316406 166.152344 362.910156 166.648438 C 362.71875 166.71875 362.496094 166.71875 362.285156 166.71875 C 361.566406 166.71875 361.117188 166.335938 360.890625 165.675781 C 360.65625 164.980469 360.859375 164.460938 361.519531 164.109375 C 361.847656 163.933594 362.144531 163.703125 362.695312 163.339844 C 361.777344 163.226562 361.171875 163.148438 360.648438 163.082031 C 360.09375 162.402344 359.6875 161.632812 359.058594 161.195312 C 358.335938 160.691406 357.144531 161.074219 356.765625 160.34375 C 356.535156 158.636719 356.347656 157.246094 356.152344 155.78125 C 356.914062 155.660156 357.53125 155.570312 358.144531 155.460938 C 359.382812 155.234375 360.617188 155 361.851562 154.761719 C 362.339844 154.667969 362.480469 154.324219 362.46875 153.882812 C 361.132812 153.832031 359.800781 153.746094 358.464844 153.734375 C 356.277344 153.722656 355.464844 152.667969 356.105469 150.507812 C 356.574219 148.929688 356.824219 147.253906 358.066406 146.085938 C 357.835938 145.464844 357.429688 144.929688 357.53125 144.515625 C 357.660156 143.980469 358.195312 143.542969 358.582031 143.023438 C 358.246094 142.1875 357.984375 141.273438 357.527344 140.46875 C 357.109375 139.738281 357.167969 139.082031 357.429688 138.371094 C 357.613281 137.882812 357.75 137.351562 358.039062 136.925781 C 359.113281 135.332031 358.992188 133.609375 358.847656 131.839844 C 357.777344 131.902344 356.851562 131.960938 355.929688 132.015625 C 355.304688 131.113281 355.515625 130.328125 355.839844 129.574219 C 355.972656 129.492188 356.101562 129.371094 356.21875 129.199219 C 356.523438 128.757812 356.566406 128.296875 356.464844 127.835938 C 356.488281 127.640625 356.476562 127.4375 356.429688 127.234375 C 356.34375 127.171875 356.257812 127.058594 356.171875 127.058594 C 356.171875 127.058594 356.167969 127.058594 356.164062 127.058594 C 356.125 126.984375 356.085938 126.910156 356.039062 126.835938 C 355.886719 126.582031 355.757812 126.316406 355.664062 126.136719 C 356.558594 123.824219 358.480469 122.847656 360.875 122.007812 C 359.730469 121.351562 358.9375 120.898438 358.304688 120.539062 C 357.359375 120.796875 356.65625 121.019531 355.941406 121.175781 C 355.554688 121.257812 354.964844 121.398438 354.769531 121.203125 C 353.792969 120.246094 352.792969 120.847656 351.816406 121.058594 C 351.042969 121.226562 350.324219 121.648438 349.539062 121.777344 C 349.453125 121.707031 349.367188 121.636719 349.28125 121.566406 C 349.027344 121.601562 348.773438 121.644531 348.519531 121.6875 C 348.621094 121.511719 348.691406 121.320312 348.824219 121.261719 C 350.164062 120.679688 351.519531 120.132812 352.867188 119.5625 C 355.457031 118.472656 358.230469 117.785156 360.488281 115.957031 C 361.019531 115.523438 361.828125 115.417969 362.523438 115.203125 C 363.210938 114.988281 363.917969 114.820312 364.675781 114.617188 C 364.894531 113.707031 365.101562 112.859375 365.300781 112.027344 C 363.503906 111.507812 361.925781 111.050781 360.191406 110.546875 C 360.34375 108.777344 359.914062 107.394531 358.714844 106.203125 C 358.117188 105.609375 358.207031 104.578125 358.847656 103.886719 C 359.328125 103.367188 359.921875 102.910156 360.546875 102.589844 C 361.269531 102.222656 362.082031 102.035156 362.976562 101.726562 C 362.636719 100.925781 362.363281 100.285156 362.132812 99.742188 C 359.8125 99.324219 357.671875 100.550781 355.316406 99.824219 C 355.691406 98.898438 355.984375 98.175781 356.359375 97.242188 C 355.277344 97.046875 354.410156 96.890625 353.359375 96.703125 C 353.605469 95.953125 353.648438 95.261719 354.007812 94.839844 C 354.804688 93.890625 355.746094 93.058594 356.65625 92.207031 C 357.320312 91.589844 357.414062 90.996094 356.632812 90.265625 C 354.140625 90.46875 351.636719 91.453125 349.0625 91.152344 C 347.253906 89.203125 347.253906 89.203125 344.242188 88.839844 C 344.140625 88.828125 344.007812 88.828125 343.941406 88.765625 C 343.804688 88.636719 343.621094 88.472656 343.609375 88.308594 C 343.59375 88.140625 343.71875 87.839844 343.847656 87.800781 C 344.441406 87.621094 345.046875 87.4375 345.65625 87.390625 C 348.480469 87.175781 351.261719 86.753906 354.050781 85.988281 C 352.765625 85.074219 352.765625 85.066406 351.78125 85.113281 C 349.164062 85.234375 346.546875 85.316406 343.933594 85.503906 C 342.445312 85.609375 341.878906 84.816406 341.542969 83.324219 C 343.136719 82.152344 345.261719 82.148438 346.949219 81.167969 C 346.855469 80.578125 346.777344 80.085938 346.695312 79.582031 C 347.320312 78.574219 348.722656 77.925781 348.175781 76.1875 C 347.847656 76.011719 347.382812 75.800781 346.960938 75.527344 C 346.578125 75.28125 346.238281 74.96875 345.875 74.675781 C 347.023438 73.398438 348.542969 74.339844 350.128906 73.625 C 348.367188 72.808594 347 72.167969 345.628906 71.527344 C 345.882812 70.84375 345.929688 70.027344 345.652344 69.582031 C 345.621094 69.570312 345.589844 69.558594 345.558594 69.546875 C 345.558594 69.371094 345.558594 69.195312 345.558594 69.027344 C 346.109375 68.542969 346.566406 68.144531 346.972656 67.789062 C 346.851562 67.039062 346.734375 66.328125 346.617188 65.613281 C 346.664062 65.515625 346.714844 65.429688 346.757812 65.328125 C 346.585938 64.496094 346.410156 63.367188 346.109375 62.273438 C 345.84375 61.324219 345.878906 60.449219 346.171875 59.507812 C 346.59375 58.144531 347.347656 57.082031 348.53125 56.328125 C 347.933594 55.363281 347.34375 54.402344 346.753906 53.453125 C 347.324219 52.703125 347.800781 52.144531 348.195312 51.53125 C 348.46875 51.105469 348.878906 50.542969 348.785156 50.148438 C 348.453125 48.746094 349.136719 47.703125 349.765625 46.621094 C 350.792969 44.847656 351.125 42.917969 351.164062 40.847656 C 350.988281 40.644531 350.824219 40.320312 350.570312 40.203125 C 349.726562 39.820312 348.78125 39.617188 347.996094 39.140625 C 347.246094 38.6875 346.730469 37.660156 345.957031 37.453125 C 344.507812 37.070312 344.105469 36.335938 344.265625 34.960938 C 344.3125 34.523438 343.992188 34.039062 343.832031 33.550781 C 343.054688 33.535156 342.429688 33.550781 341.8125 33.507812 C 339.875 33.378906 339.621094 33.019531 339.886719 30.875 C 339.925781 30.574219 339.925781 30.265625 339.945312 29.917969 C 339.074219 29.417969 337.953125 29.347656 337.578125 28.113281 C 337.457031 27.714844 336.566406 27.40625 335.988281 27.320312 C 330.394531 26.488281 324.808594 25.613281 319.195312 24.949219 C 313.160156 24.234375 307.101562 23.6875 301.042969 23.164062 C 295.929688 22.71875 290.808594 22.382812 285.683594 22.046875 C 283.488281 21.902344 281.28125 21.8125 279.082031 21.816406 C 274.570312 21.824219 270.058594 21.9375 265.550781 21.972656 C 260.097656 22.015625 254.640625 21.976562 249.1875 22.066406 C 245.625 22.121094 242.066406 22.378906 238.503906 22.480469 C 228.339844 22.769531 218.164062 22.828125 208.011719 23.34375 C 196.910156 23.90625 185.804688 24.203125 174.695312 24.414062 C 170.085938 24.503906 165.460938 24.304688 160.863281 24.585938 C 154.039062 25.007812 147.246094 24.292969 140.4375 24.328125 C 133.855469 24.359375 127.277344 24.125 120.691406 24.738281 C 115.074219 25.261719 109.410156 25.316406 103.765625 25.523438 C 101.886719 25.59375 99.9375 25.164062 98.140625 25.53125 C 95.945312 25.984375 93.765625 25.890625 91.582031 26.082031 C 89.015625 26.308594 86.445312 26.761719 83.902344 25.792969 C 83.550781 25.65625 82.792969 25.964844 82.542969 26.304688 C 81.503906 27.71875 80.117188 27.96875 78.460938 28.179688 C 73.59375 28.800781 68.6875 29.21875 63.933594 30.566406 C 62.8125 30.886719 61.773438 30.777344 61.636719 28.867188 C 61.617188 28.566406 61.683594 28.257812 61.726562 27.730469 C 62.570312 27.300781 63.46875 26.792969 64.40625 26.386719 C 65.074219 26.097656 65.8125 25.972656 66.5 25.730469 C 67.726562 25.300781 68.171875 24.542969 68.214844 23.128906 C 68.25 22.015625 67.640625 21.3125 67.273438 20.324219 C 68.46875 19.675781 69.535156 19.023438 70.667969 18.515625 C 71.417969 18.183594 72.285156 18.121094 73.070312 17.847656 C 76.023438 16.808594 79.210938 16.378906 82.425781 14.289062 C 79.476562 14.796875 77.101562 15.144531 74.753906 15.617188 C 72.015625 16.167969 69.335938 17.039062 66.496094 17.039062 C 66.195312 17.039062 65.863281 17.132812 65.59375 17.277344 C 64.230469 18.015625 62.789062 17.933594 61.539062 17.601562 C 58.519531 19.632812 55.488281 20.953125 52.0625 21.238281 C 51.757812 21.265625 51.34375 21.183594 51.164062 21.355469 C 49.6875 22.738281 47.253906 22.144531 45.949219 23.988281 C 45.355469 24.832031 44.234375 24.472656 43.28125 24.285156 C 42.46875 25.515625 41.636719 26.710938 40.03125 26.996094 C 39.75 27.046875 39.480469 27.296875 39.25 27.507812 C 36.84375 29.671875 34.445312 31.847656 32.046875 34.023438 C 31.894531 34.160156 31.738281 34.339844 31.675781 34.527344 C 31 36.582031 29.292969 37.6875 27.628906 38.765625 C 26.589844 39.4375 25.789062 40.03125 25.972656 41.476562 C 26.042969 42.003906 25.519531 42.613281 25.234375 43.171875 C 24.714844 44.199219 24.039062 45.171875 23.671875 46.25 C 23.324219 47.277344 22.765625 48.054688 22.085938 48.878906 C 20.429688 50.902344 18.84375 53.007812 18.75 55.820312 C 18.730469 56.4375 18.566406 57.082031 18.316406 57.648438 C 17.199219 60.175781 18.023438 62.84375 17.714844 65.421875 C 17.679688 65.710938 17.851562 66.03125 17.949219 66.328125 C 18.859375 69.097656 19.773438 71.867188 20.726562 74.753906 C 21.375 74.867188 22.066406 74.984375 22.828125 75.109375 C 22.875 75.785156 22.917969 76.378906 22.96875 77.09375 C 24.191406 77.585938 25.433594 78.027344 26.792969 78.304688 C 29.753906 78.910156 32.597656 79.921875 35.03125 81.824219 L 35.011719 81.804688 C 35.34375 80.246094 33.152344 80.300781 33.042969 78.902344 C 34.785156 78.859375 36.476562 78.8125 38.113281 79.035156 C 37.929688 79.304688 37.742188 79.578125 37.554688 79.859375 C 39.140625 81.433594 39.265625 83.453125 39.0625 85.402344 C 38.960938 86.375 38.644531 87.09375 39.605469 87.785156 C 39.796875 87.921875 39.667969 88.792969 39.433594 89.167969 C 38.996094 89.859375 38.3125 90.394531 37.84375 91.074219 C 37.015625 92.269531 37.351562 93.230469 38.714844 93.75 C 39.003906 93.859375 39.316406 93.941406 39.625 93.980469 C 41.527344 94.21875 43.21875 94.980469 44.84375 96.054688 C 42.269531 97.46875 39.550781 98.355469 36.710938 99.007812 C 35.242188 99.34375 33.761719 100.007812 32.726562 101.578125 C 34.207031 102.109375 35.457031 101.957031 36.769531 101.519531 C 38.75 100.855469 40.777344 100.320312 42.785156 99.730469 C 42.757812 99.640625 42.597656 99.378906 42.667969 99.273438 C 42.8125 99.0625 43.113281 98.773438 43.300781 98.804688 C 44.5 99 45.683594 99.277344 47.078125 99.570312 C 46.867188 99.953125 46.769531 100.40625 46.492188 100.578125 C 45.96875 100.90625 45.359375 101.117188 44.761719 101.308594 C 41.566406 102.335938 38.476562 103.609375 35.53125 105.222656 C 32.996094 106.609375 31.09375 108.644531 29.453125 110.996094 C 28.820312 111.90625 29.332031 112.527344 29.617188 113.246094 C 29.003906 114.359375 28.40625 115.449219 27.878906 116.40625 C 28.324219 119.042969 30.191406 119.769531 32.59375 120.261719 C 31.695312 120.699219 31.070312 121 30.40625 121.324219 C 30.441406 121.988281 30.472656 122.585938 30.503906 123.136719 C 29.769531 123.496094 29.097656 123.824219 28.425781 124.152344 C 29.34375 124.332031 30.121094 124.117188 30.914062 124.007812 C 31.148438 123.976562 31.632812 124.238281 31.644531 124.394531 C 31.675781 124.761719 31.609375 125.300781 31.367188 125.492188 C 30.925781 125.832031 30.324219 125.972656 29.75 126.214844 C 29.765625 126.277344 29.777344 126.332031 29.789062 126.394531 C 29.753906 126.40625 29.714844 126.421875 29.679688 126.433594 C 29.472656 126.515625 29.363281 126.851562 29.03125 127.320312 C 29.390625 127.363281 29.703125 127.394531 30 127.429688 C 30.074219 127.796875 30.140625 128.132812 30.207031 128.453125 C 29.296875 129.484375 28.222656 130.035156 26.847656 130.132812 C 26.683594 131.175781 26.542969 132.078125 26.390625 133.050781 C 27.242188 133.332031 28.097656 133.367188 28.566406 133.8125 C 28.792969 134.023438 29.023438 134.191406 29.257812 134.339844 C 28.714844 135.382812 28.152344 136.425781 27.597656 137.488281 C 28.410156 139.304688 28.058594 141.515625 29.238281 143.269531 C 27.242188 144.910156 26.972656 145.335938 26.597656 147.652344 C 26.398438 148.882812 26.210938 150.121094 26.085938 151.359375 C 25.898438 153.191406 27.453125 154.582031 27.394531 156.445312 C 27.378906 157.019531 28.15625 157.648438 28.628906 158.203125 C 29.175781 158.835938 29.828125 159.378906 30.367188 160.019531 C 30.738281 160.460938 30.988281 161.003906 31.269531 161.464844 C 30.097656 162.625 28.566406 162.183594 27.121094 162.789062 C 27.464844 163.285156 27.644531 163.621094 27.894531 163.894531 C 28.679688 164.75 29.851562 164.492188 30.804688 164.863281 C 30.917969 165.019531 31.0625 165.171875 31.066406 165.328125 C 31.082031 166.253906 29.78125 168.796875 28.917969 169.15625 C 26.382812 170.207031 26.089844 172.261719 26.285156 174.589844 C 26.347656 175.320312 26.601562 176.101562 26.417969 176.757812 C 26.132812 177.777344 26.679688 178.324219 27.1875 178.984375 C 27.289062 179.117188 27.222656 179.378906 27.238281 179.683594 C 26.765625 179.980469 26.25 180.300781 25.679688 180.660156 C 25.457031 181.867188 25.542969 183.28125 24.9375 184.285156 C 23.773438 186.21875 24.195312 188.289062 23.726562 190.292969 C 24.660156 190.960938 25.488281 191.550781 26.222656 192.078125 C 25.832031 192.726562 25.550781 193.230469 25.234375 193.710938 C 24.878906 194.257812 24.496094 194.785156 24.101562 195.359375 C 25.96875 196.160156 28.027344 195.988281 29.3125 197.449219 C 29.222656 198.347656 28.207031 198.585938 28.421875 199.511719 C 28.570312 200.148438 28.449219 200.851562 28.449219 201.589844 C 32.050781 200.839844 35.542969 200.601562 38.546875 203.351562 C 39.65625 203.351562 40.84375 203.152344 41.941406 203.386719 C 42.390625 203.480469 42.84375 203.585938 43.292969 203.683594 C 42.285156 203.921875 41.28125 204.191406 40.285156 204.488281 C 38.683594 204.964844 37.199219 205.761719 35.929688 206.933594 C 35.023438 207.769531 34.125 208.671875 32.742188 208.785156 C 32.515625 208.804688 32.335938 209.414062 32.097656 209.8125 C 32.75 210.367188 33.234375 210.957031 33.859375 211.253906 C 34.261719 211.441406 34.867188 211.171875 35.378906 211.167969 C 35.46875 211.167969 35.558594 211.476562 35.75 211.824219 C 33.695312 212.933594 32.359375 214.707031 31.34375 216.808594 C 30.996094 217.53125 30.328125 218.15625 29.679688 218.667969 C 28.320312 219.734375 27.808594 221.136719 27.742188 222.785156 C 27.699219 223.722656 27.492188 224.675781 27.589844 225.597656 C 27.710938 226.722656 27.515625 227.601562 26.742188 228.476562 C 25.683594 229.675781 25.152344 231.113281 25.089844 232.78125 C 25.046875 233.902344 24.679688 235.035156 24.316406 236.117188 C 23.960938 237.167969 23.902344 238.140625 24.398438 239.082031 C 26.429688 240.410156 28.75 241.082031 31.214844 242.734375 C 29.753906 242.734375 28.898438 242.734375 28.015625 242.734375 C 28.203125 243.949219 30.074219 243.867188 29.578125 245.554688 C 28.703125 245.691406 27.945312 245.808594 27.078125 245.941406 C 27.300781 246.441406 27.347656 246.855469 27.558594 246.980469 C 28.980469 247.824219 30.429688 248.613281 31.886719 249.398438 C 32.050781 249.484375 32.296875 249.460938 32.5 249.4375 C 33.457031 249.320312 34.386719 249.371094 35.292969 249.53125 C 35.078125 249.660156 34.863281 249.789062 34.644531 249.914062 C 34.5 249.996094 34.46875 250.261719 34.386719 250.449219 C 34.71875 251.128906 35.210938 250.902344 35.757812 250.707031 C 36.222656 250.542969 36.632812 250.625 36.546875 251.316406 C 35.628906 251.484375 34.691406 251.65625 33.871094 251.808594 C 33.03125 253.792969 34.664062 254.792969 35.523438 256.027344 C 34.949219 256.425781 34.519531 256.722656 33.984375 257.09375 C 34.839844 257.328125 35.574219 257.582031 36.328125 257.730469 C 37.136719 257.886719 37.867188 258.089844 38.230469 258.867188 C 37.1875 260.304688 35.390625 260.351562 34.214844 260.664062 C 32.730469 263.199219 31.449219 265.480469 31.507812 268.234375 C 33.527344 269 35.617188 269.589844 36.777344 271.441406 C 36.519531 271.886719 36.261719 272.335938 36.003906 272.785156 C 34.828125 272.925781 33.617188 272.023438 32.484375 272.804688 C 32.222656 273.550781 32.269531 274.203125 33.070312 274.425781 C 34.035156 274.691406 35.054688 274.792969 36.054688 274.949219 C 36.71875 275.054688 37.398438 275.089844 38.050781 275.238281 C 38.707031 275.386719 39.339844 275.621094 39.96875 275.855469 C 40.484375 276.046875 41.164062 275.984375 41.59375 276.550781 C 40.195312 277.082031 38.722656 276.949219 37.609375 278.070312 C 37.878906 278.589844 38.152344 279.160156 38.914062 279.257812 C 41.03125 279.535156 43.152344 279.761719 45.269531 280.027344 C 45.671875 280.078125 46.207031 279.976562 46.335938 280.796875 C 45.898438 280.9375 45.433594 281.1875 44.945312 281.234375 C 40.828125 281.628906 37.136719 283.132812 33.476562 284.808594 C 31.898438 285.535156 31.375 286.796875 30.847656 288.144531 C 31.457031 288.988281 30.941406 289.976562 31.234375 290.832031 C 31.414062 291.355469 31.964844 291.773438 32.324219 292.207031 C 31.878906 292.765625 31.015625 292.925781 31.257812 293.789062 C 32.503906 294.324219 33.78125 292.679688 35.152344 293.863281 C 35.203125 294.535156 35.265625 295.316406 35.332031 296.105469 C 33.78125 296.921875 31.5625 295.792969 30.433594 297.601562 C 30.824219 298.128906 31.167969 298.59375 31.523438 299.070312 C 30.601562 299.574219 29.835938 299.984375 29.097656 300.386719 C 28.988281 300.878906 28.878906 301.285156 28.816406 301.699219 C 28.394531 304.363281 28.410156 304.382812 31.039062 305.429688 C 31.453125 305.59375 31.871094 305.757812 32.28125 305.929688 C 33.710938 306.539062 33.710938 306.539062 33.316406 308.371094 C 33.261719 308.640625 33.179688 308.90625 33.117188 309.136719 C 32.324219 309.207031 31.625 309.171875 31 309.355469 C 30.65625 309.453125 30.234375 309.90625 30.21875 310.214844 C 30.203125 310.527344 30.574219 311.035156 30.898438 311.148438 C 31.511719 311.367188 32.214844 311.378906 32.882812 311.445312 C 35.464844 311.691406 37.996094 312.15625 40.480469 312.859375 C 40.222656 314.011719 39.222656 314.128906 38.390625 314.335938 C 37.527344 314.550781 36.605469 314.550781 35.722656 314.707031 C 35.230469 314.792969 34.597656 314.855469 34.777344 315.625 C 35.117188 315.6875 35.449219 315.804688 35.777344 315.800781 C 39.300781 315.734375 42.757812 316.183594 46.1875 316.878906 C 46.722656 316.988281 47.34375 317.027344 47.855469 316.878906 C 50.984375 315.957031 54.085938 316.375 57.210938 316.878906 C 59.546875 317.257812 61.898438 317.53125 64.246094 317.820312 C 66.820312 318.136719 69.414062 318.324219 71.972656 318.734375 C 78.3125 319.742188 84.628906 320.886719 90.96875 321.902344 C 91.445312 321.976562 91.917969 322.050781 92.394531 322.125 C 91.128906 322.183594 89.859375 322.238281 88.597656 322.285156 C 88.179688 322.296875 87.757812 322.382812 87.34375 322.355469 C 84 322.140625 80.65625 321.898438 77.3125 321.683594 C 76.054688 321.601562 74.796875 321.53125 73.539062 321.535156 C 69.34375 321.546875 65.148438 321.625 60.953125 321.617188 C 56.214844 321.605469 51.558594 322.25 46.898438 323.035156 C 39.472656 324.28125 32.574219 326.921875 26.007812 330.523438 C 25.457031 330.824219 24.929688 331.175781 24.359375 331.425781 C 23.113281 331.96875 21.84375 332.464844 20.585938 332.976562 C 20.234375 334.296875 18.894531 334.664062 18.089844 335.542969 C 17.738281 337.84375 17.746094 340.265625 16.191406 342.199219 C 14.824219 343.902344 14.890625 345.671875 15.777344 347.5 C 16.867188 349.753906 17.585938 352.199219 19.210938 354.1875 C 19.523438 354.570312 19.765625 355.128906 19.78125 355.609375 C 19.863281 358.109375 21.679688 360.003906 22.046875 362.390625 C 23.457031 363.773438 24.363281 365.648438 26.191406 366.621094 C 26.460938 366.765625 26.722656 366.921875 27.121094 367.144531 C 26.746094 367.398438 26.445312 367.597656 25.984375 367.902344 C 27.769531 368.007812 29.390625 368.179688 30.660156 369.441406 C 30.976562 369.757812 31.605469 369.898438 32.085938 369.894531 C 33.65625 369.875 35.234375 369.816406 36.796875 369.660156 C 39.71875 369.371094 42.628906 368.976562 45.546875 368.664062 C 46.902344 368.519531 48.269531 368.488281 49.628906 368.371094 C 51.503906 368.207031 53.371094 367.921875 55.246094 367.851562 C 58.90625 367.707031 62.570312 367.574219 66.226562 367.636719 C 68.839844 367.683594 71.40625 367.769531 74.039062 367.464844 C 77.980469 367.011719 81.992188 366.996094 85.96875 367.066406 C 89.316406 367.125 92.65625 367.519531 95.992188 367.847656 C 101.113281 368.355469 106.226562 368.542969 111.367188 368.140625 C 113.664062 367.960938 115.980469 368.03125 118.285156 367.898438 C 126.238281 367.433594 134.199219 367.273438 142.15625 367.78125 C 145.074219 367.96875 147.992188 368.335938 150.878906 368.808594 C 156.269531 369.695312 161.71875 369.886719 167.140625 370.4375 C 171.9375 370.921875 176.734375 371.476562 181.546875 371.753906 C 188.03125 372.125 194.519531 372.621094 201.027344 372.382812 C 210.78125 372.027344 220.53125 372.472656 230.28125 372.667969 C 233.109375 372.722656 235.933594 372.808594 238.757812 372.945312 C 245.148438 373.257812 251.539062 373.523438 257.917969 373.972656 C 265.25 374.492188 272.585938 374.488281 279.925781 374.378906 C 289.886719 374.234375 299.847656 374.082031 309.8125 373.960938 C 310.851562 373.945312 311.894531 374.117188 312.9375 374.171875 C 313.878906 374.222656 314.824219 374.273438 315.765625 374.25 C 318.695312 374.175781 321.625 374.039062 324.558594 373.992188 C 326.652344 373.957031 328.75 374.015625 330.847656 374.070312 C 331.789062 374.097656 332.738281 374.171875 333.667969 374.316406 C 337.667969 374.949219 337.941406 374.910156 341.019531 372.933594 C 342.332031 372.089844 343.648438 371.253906 344.96875 370.410156 C 344.8125 370.148438 344.5625 369.816406 344.410156 369.445312 C 343.691406 367.675781 343.917969 367.316406 345.695312 366.757812 C 347.675781 366.132812 349.613281 365.363281 351.59375 364.722656 C 352.273438 364.5 353.019531 364.46875 353.734375 364.351562 C 353.730469 364.144531 353.726562 363.933594 353.722656 363.722656 C 352.773438 362.683594 352.980469 361.449219 353.171875 360.230469 C 353.191406 360.113281 353.496094 360.039062 353.664062 359.945312 C 353.660156 359.523438 353.652344 359.105469 353.644531 358.683594 C 352.917969 358.304688 352.117188 358.027344 351.488281 357.527344 C 350.589844 356.820312 349.835938 355.925781 348.984375 355.15625 C 347.929688 354.207031 347.585938 353.128906 348.121094 351.773438 C 348.34375 351.210938 348.4375 350.601562 348.628906 349.871094 C 348.082031 349.609375 347.648438 349.359375 347.1875 349.175781 C 345.597656 348.542969 345.160156 347.421875 345.152344 345.707031 C 345.140625 343.863281 344.617188 342.003906 344.195312 340.179688 C 344.097656 339.757812 343.570312 339.359375 343.148438 339.109375 C 342.523438 338.734375 341.765625 338.585938 341.164062 338.191406 C 340.679688 337.867188 340.332031 337.324219 339.941406 336.867188 C 339.492188 336.335938 339.0625 335.789062 338.585938 335.203125 C 340.0625 333.480469 341.78125 333.875 343.546875 334.527344 C 343.875 333.992188 344.140625 333.5625 344.421875 333.105469 C 343.660156 331.988281 343.003906 330.9375 341.835938 330.308594 C 341.03125 329.875 340.390625 329.285156 339.992188 328.546875 C 341.644531 328.222656 343.292969 327.894531 344.941406 327.570312 C 345.476562 327.464844 346.121094 327.3125 346.46875 326.96875 C 347.40625 326.035156 348.632812 325.988281 349.828125 325.683594 C 351.066406 325.367188 352.515625 325.371094 353.851562 323.894531 C 351.199219 323.878906 349.042969 324.320312 346.863281 324.4375 C 344.726562 324.554688 342.519531 325.15625 339.875 324.269531 C 341.132812 323.894531 341.96875 323.636719 342.808594 323.394531 C 343.671875 323.144531 344.53125 322.882812 345.402344 322.667969 C 346.273438 322.457031 347.15625 322.292969 348.039062 322.128906 C 348.875 321.96875 349.785156 322.171875 350.628906 321.8125 C 350.355469 321.3125 350.164062 320.960938 349.976562 320.625 C 350.742188 320.070312 351.859375 319.675781 352.039062 319.050781 C 352.449219 317.613281 353.511719 317.359375 354.75 317.097656 C 355.164062 317.011719 355.546875 316.792969 355.890625 316.660156 C 356.078125 315.714844 356.238281 314.910156 356.398438 314.109375 C 354.410156 311.957031 354.410156 311.910156 356.507812 310.636719 C 355.816406 310.03125 355.011719 309.488281 354.441406 308.78125 C 353.695312 307.855469 353.996094 306.945312 355.105469 306.445312 C 356.101562 305.992188 357.144531 305.628906 358.078125 305.261719 C 358.5625 303.796875 358.199219 302.640625 357.605469 301.691406 C 356.828125 301.132812 355.78125 301.625 355.4375 300.714844 C 355.675781 300.390625 355.898438 300.085938 356.265625 299.585938 C 355.042969 299.523438 354.050781 299.476562 353.058594 299.425781 C 352.382812 299.390625 351.691406 299.417969 351.039062 299.28125 C 350.640625 299.199219 349.976562 298.84375 349.988281 298.640625 C 350.042969 297.644531 349.746094 296.976562 348.792969 296.421875 C 348.304688 296.136719 348.464844 295.445312 348.867188 295.011719 C 349.9375 293.863281 351.226562 293.082031 352.925781 293.003906 C 354.074219 292.949219 355.132812 292.71875 355.542969 291.378906 C 354.539062 291.378906 353.640625 291.359375 352.742188 291.382812 C 351.726562 291.414062 350.714844 291.53125 349.699219 291.527344 C 348.800781 291.523438 347.898438 291.402344 346.996094 291.34375 C 346.09375 291.28125 345.191406 291.214844 344.289062 291.179688 C 343.386719 291.148438 342.480469 291.164062 341.578125 291.144531 C 340.5625 291.121094 339.542969 291.09375 338.527344 291.054688 C 337.75 291.023438 336.914062 291.429688 335.847656 290.859375 C 337.472656 289.953125 338.921875 290.082031 340.367188 290.070312 C 341.9375 290.054688 343.519531 289.988281 345.066406 289.757812 C 345.59375 289.679688 346.027344 289.042969 346.527344 288.636719 C 345.933594 288.144531 345.480469 287.773438 344.785156 287.199219 C 346.132812 286.964844 347.164062 286.785156 348.136719 286.617188 C 348.230469 285.753906 347.839844 285.359375 347.214844 285.363281 C 345.976562 285.371094 344.742188 285.527344 343.503906 285.558594 C 343.121094 285.570312 342.554688 285.691406 342.449219 285.078125 C 343.199219 283.523438 345.277344 284.027344 346.289062 283.015625 C 345.992188 282.039062 345.726562 281.160156 345.417969 280.132812 C 348.410156 279.839844 349.472656 277.679688 350.824219 275.984375 C 350.683594 275.226562 349.6875 275.179688 350.070312 274.246094 C 350.703125 272.703125 350.34375 271.285156 348.578125 270.445312 C 348.496094 270.40625 348.457031 270.285156 348.382812 270.183594 C 348.667969 269.433594 348.949219 268.683594 349.246094 267.898438 C 350.707031 267.621094 352.023438 267.371094 353.332031 267.121094 C 352.921875 264.96875 352.921875 264.96875 354.019531 263.027344 C 352.53125 262.628906 351.074219 262.148438 349.578125 261.863281 C 347.953125 261.550781 346.210938 262.109375 344.542969 261.480469 C 344.535156 261.457031 344.53125 261.433594 344.527344 261.410156 C 346.835938 260.828125 349.128906 260.160156 351.410156 259.441406 C 351.980469 259.257812 352.480469 258.824219 352.984375 258.464844 C 353.066406 258.402344 352.996094 258.125 352.996094 257.941406 C 352.390625 257.804688 351.769531 257.667969 350.929688 257.484375 C 351.738281 256.875 352.292969 256.460938 353.363281 255.648438 C 351.097656 256.152344 349.558594 256.6875 348.015625 257.351562 C 346.6875 257.925781 345.28125 258.339844 343.871094 258.707031 C 343.84375 258.59375 343.820312 258.480469 343.792969 258.367188 C 343.367188 256.613281 343.78125 255.84375 345.578125 255.246094 C 346.207031 255.035156 346.890625 254.96875 347.546875 254.820312 C 348.847656 254.519531 350.152344 254.210938 351.449219 253.890625 C 351.503906 253.875 351.511719 253.699219 351.582031 253.460938 C 350.886719 253.460938 350.230469 253.417969 349.578125 253.472656 C 348.363281 253.570312 347.152344 253.578125 345.960938 253.445312 C 346.375 253.371094 346.789062 253.296875 347.203125 253.222656 C 348.746094 252.9375 350.296875 252.695312 351.851562 252.484375 C 354.335938 252.144531 356.738281 251.460938 359.328125 250.847656 C 359.09375 248.820312 360.433594 246.992188 359.433594 244.964844 C 359.21875 244.527344 359.566406 243.75 359.78125 243.179688 C 360.042969 242.484375 360.769531 242.535156 361.367188 242.351562 C 362.515625 242 363.605469 241.539062 362.996094 239.945312 C 362.941406 239.804688 363.03125 239.519531 363.152344 239.410156 C 363.992188 238.652344 364.074219 237.574219 364.433594 236.601562 Z M 33.753906 72.597656 C 33.59375 72.65625 33.429688 72.683594 33.265625 72.722656 C 33.261719 72.726562 33.246094 72.703125 33.246094 72.703125 C 33.40625 72.640625 33.566406 72.574219 33.726562 72.515625 C 33.8125 72.480469 33.898438 72.457031 33.984375 72.429688 C 33.90625 72.484375 33.839844 72.566406 33.753906 72.597656 Z M 329.394531 210.144531 C 329.355469 210.152344 329.320312 210.167969 329.28125 210.179688 C 329.320312 210.167969 329.355469 210.152344 329.394531 210.144531 C 329.378906 210.101562 329.363281 210.039062 329.34375 210.007812 C 329.363281 210.039062 329.375 210.101562 329.394531 210.144531 Z M 32.523438 111.867188 C 32.484375 111.839844 32.5 111.734375 32.488281 111.664062 C 32.566406 111.640625 32.644531 111.617188 32.722656 111.589844 C 32.734375 111.695312 32.75 111.800781 32.761719 111.90625 C 32.683594 111.898438 32.585938 111.90625 32.523438 111.867188 Z M 31.019531 164.917969 C 30.980469 164.933594 30.914062 164.890625 30.847656 164.84375 C 31.035156 164.699219 31.21875 164.546875 31.414062 164.414062 C 31.433594 164.402344 31.539062 164.523438 31.605469 164.578125 C 31.414062 164.695312 31.226562 164.828125 31.019531 164.917969 Z M 30.691406 163.167969 C 31.277344 163.167969 31.722656 163.167969 32.496094 163.167969 C 31.75 163.765625 31.304688 163.851562 30.691406 163.167969 Z M 30.691406 163.167969 " fill-opacity="1" fill-rule="nonzero"/></g></svg>